<svg width="16" height="17" viewBox="0 0 16 17" fill="none" xmlns="http://www.w3.org/2000/svg">
<g clip-path="url(#clip0_0_199)">
<path d="M8 1.55933C9.85652 1.55933 11.637 2.29682 12.9497 3.60958C14.2625 4.92233 15 6.70281 15 8.55933C15 10.4158 14.2625 12.1963 12.9497 13.5091C11.637 14.8218 9.85652 15.5593 8 15.5593C6.14348 15.5593 4.36301 14.8218 3.05025 13.5091C1.7375 12.1963 1 10.4158 1 8.55933C1 6.70281 1.7375 4.92233 3.05025 3.60958C4.36301 2.29682 6.14348 1.55933 8 1.55933Z" fill="#D8D8D8"/>
<mask id="mask0_0_199" style="mask-type:luminance" maskUnits="userSpaceOnUse" x="1" y="1" width="14" height="15">
<path fill-rule="evenodd" clip-rule="evenodd" d="M8 1.55933C9.85652 1.55933 11.637 2.29682 12.9497 3.60958C14.2625 4.92233 15 6.70281 15 8.55933C15 10.4158 14.2625 12.1963 12.9497 13.5091C11.637 14.8218 9.85652 15.5593 8 15.5593C6.14348 15.5593 4.36301 14.8218 3.05025 13.5091C1.7375 12.1963 1 10.4158 1 8.55933C1 6.70281 1.7375 4.92233 3.05025 3.60958C4.36301 2.29682 6.14348 1.55933 8 1.55933Z" fill="white"/>
</mask>
<g mask="url(#mask0_0_199)">
<path d="M8 15.5593C11.866 15.5593 15 12.4253 15 8.55933C15 4.69333 11.866 1.55933 8 1.55933C4.13401 1.55933 1 4.69333 1 8.55933C1 12.4253 4.13401 15.5593 8 15.5593Z" fill="#6DAE4F"/>
<path d="M12.13 9.77933C12.1097 8.99379 11.9887 8.21409 11.77 7.45933C11.1606 6.96012 10.7005 6.30276 10.44 5.55933C10.28 5.02933 10.17 4.83933 9.69999 4.82933C9.5089 4.85199 9.33414 4.9482 9.2128 5.09755C9.09145 5.2469 9.03305 5.43765 9.04999 5.62933C9.04999 5.86933 9.04999 6.11933 9.10999 6.34933C9.24704 7.005 9.44111 7.64745 9.68999 8.26933L5.18999 4.88933C5.11493 4.81621 5.02538 4.75964 4.92711 4.72325C4.82885 4.68686 4.72404 4.67147 4.61946 4.67806C4.51488 4.68466 4.41285 4.71309 4.31993 4.76154C4.22701 4.80999 4.14528 4.87736 4.07999 4.95933C4.03174 5.04264 4.00044 5.13467 3.9879 5.23012C3.97535 5.32558 3.98182 5.42257 4.00691 5.51552C4.03201 5.60846 4.07524 5.69553 4.13412 5.77169C4.193 5.84786 4.26637 5.91163 4.34999 5.95933L6.59999 7.65933L7.18999 8.21933L3.61999 5.55933C3.52342 5.46366 3.4014 5.39773 3.26845 5.36936C3.1355 5.341 2.99721 5.3514 2.86999 5.39933C2.74176 5.4444 2.6297 5.52633 2.54786 5.63486C2.46603 5.74338 2.41806 5.87365 2.40999 6.00933C2.40028 6.14366 2.42897 6.27797 2.49271 6.3966C2.55645 6.51524 2.65262 6.6133 2.76999 6.67933L4.99999 8.32933L6.34999 9.32933L3.44999 7.13933C3.37354 7.06845 3.28381 7.0134 3.18599 6.97736C3.08816 6.94131 2.98416 6.92499 2.87999 6.92933C2.67015 6.94793 2.47611 7.04854 2.33999 7.20933C2.02999 7.60933 2.27999 8.01933 2.59999 8.26933L4.84999 9.95933L5.99999 10.8093L3.72999 9.10933C3.66068 9.03387 3.57645 8.97362 3.48263 8.9324C3.38882 8.89119 3.28746 8.86991 3.18499 8.86991C3.08253 8.86991 2.98117 8.89119 2.88736 8.9324C2.79354 8.97362 2.70931 9.03387 2.63999 9.10933C2.58013 9.19538 2.53871 9.29287 2.51834 9.3957C2.49797 9.49852 2.49909 9.60445 2.52163 9.70682C2.54417 9.80919 2.58764 9.90579 2.64931 9.99055C2.71099 10.0753 2.78952 10.1464 2.87999 10.1993L6.97999 13.1993C7.57999 13.6493 9.04999 14.0393 9.69999 13.4693" stroke="#165209" stroke-width="1.5" stroke-linecap="round" stroke-linejoin="round"/>
<path fill-rule="evenodd" clip-rule="evenodd" d="M12.61 10.4593L12.19 10.0893C12.1393 9.35276 11.967 8.62965 11.68 7.94935C11.0935 7.25948 10.6789 6.44043 10.47 5.55935C10.31 5.02935 10.2 4.83935 9.73002 4.82935C9.53893 4.852 9.36418 4.94821 9.24283 5.09756C9.12148 5.24691 9.06308 5.43766 9.08003 5.62935C9.08003 5.86935 9.08003 6.11935 9.14003 6.34935C9.2563 6.98076 9.44071 7.5977 9.69002 8.18935L9.50003 8.08935L5.19003 4.77935C5.11496 4.70623 5.02541 4.64965 4.92714 4.61326C4.82888 4.57687 4.72408 4.56148 4.61949 4.56808C4.51491 4.57467 4.41288 4.60311 4.31996 4.65155C4.22704 4.7 4.14531 4.76738 4.08003 4.84935C4.02262 4.93504 3.98403 5.03193 3.96679 5.13363C3.94955 5.23533 3.95407 5.33952 3.98003 5.43935C4.00379 5.53989 4.04921 5.63404 4.11311 5.71521C4.17702 5.79639 4.25787 5.86264 4.35003 5.90935L6.55003 7.55935L7.19003 8.06935L3.62003 5.39935C3.54528 5.32601 3.45583 5.26937 3.35757 5.23316C3.25931 5.19696 3.15448 5.18203 3.05003 5.18935C2.94647 5.19565 2.84525 5.22282 2.75246 5.26922C2.65966 5.31561 2.5772 5.38029 2.51003 5.45935C2.45483 5.54604 2.41754 5.64291 2.40037 5.74424C2.38319 5.84557 2.38648 5.94931 2.41003 6.04935C2.42925 6.15545 2.47143 6.25607 2.53361 6.34417C2.5958 6.43226 2.67649 6.5057 2.77003 6.55935L5.00003 8.21935L6.35003 9.21935L3.45003 7.03935C3.37578 6.96473 3.28665 6.90658 3.18844 6.86867C3.09024 6.83077 2.98515 6.81396 2.88003 6.81935C2.77559 6.82632 2.67371 6.85479 2.58079 6.90297C2.48787 6.95115 2.4059 7.01801 2.34003 7.09935C2.28148 7.18423 2.24158 7.28055 2.22295 7.38197C2.20432 7.48338 2.20739 7.5876 2.23195 7.68774C2.25652 7.78789 2.30202 7.88169 2.36546 7.96298C2.4289 8.04427 2.50885 8.11119 2.60003 8.15935L4.85003 9.84935L6.00003 10.6993L3.73003 9.00935C3.66262 8.93209 3.5797 8.8699 3.48666 8.82683C3.39361 8.78375 3.29254 8.76076 3.19003 8.75935C3.08623 8.76179 2.984 8.78519 2.88948 8.82815C2.79496 8.87112 2.71011 8.93275 2.64003 9.00935C2.57881 9.09407 2.53624 9.1908 2.51512 9.29317C2.49399 9.39553 2.4948 9.50121 2.51747 9.60325C2.54014 9.70528 2.58418 9.80136 2.64667 9.88514C2.70916 9.96893 2.78869 10.0385 2.88003 10.0893L7.00003 13.1993C7.29304 13.4228 7.62898 13.5834 7.98687 13.6711C8.34475 13.7589 8.71689 13.7719 9.08003 13.7093C9.28171 13.8658 9.52974 13.9508 9.78503 13.9508C10.0403 13.9508 10.2883 13.8658 10.49 13.7093C11.09 13.2493 10.9 13.1993 11.34 12.5793C11.8422 11.923 12.2683 11.2118 12.61 10.4593Z" fill="#DCF0CB"/>
<path d="M12.13 9.77933C12.1097 8.99379 11.9887 8.21409 11.77 7.45933C11.1606 6.96012 10.7005 6.30276 10.44 5.55933C10.28 5.02933 10.17 4.83933 9.69999 4.82933C9.5089 4.85199 9.33414 4.9482 9.2128 5.09755C9.09145 5.2469 9.03305 5.43765 9.04999 5.62933C9.04999 5.86933 9.04999 6.11933 9.10999 6.34933C9.24704 7.005 9.44111 7.64745 9.68999 8.26933L5.18999 4.88933C5.11493 4.81621 5.02538 4.75964 4.92711 4.72325C4.82885 4.68686 4.72404 4.67147 4.61946 4.67806C4.51488 4.68466 4.41285 4.71309 4.31993 4.76154C4.22701 4.80999 4.14528 4.87736 4.07999 4.95933C4.03174 5.04264 4.00044 5.13467 3.9879 5.23012C3.97535 5.32558 3.98182 5.42257 4.00691 5.51552C4.03201 5.60846 4.07524 5.69553 4.13412 5.77169C4.193 5.84786 4.26637 5.91163 4.34999 5.95933L6.59999 7.65933L7.18999 8.21933L3.61999 5.55933C3.52342 5.46366 3.4014 5.39773 3.26845 5.36936C3.1355 5.341 2.99721 5.3514 2.86999 5.39933C2.74176 5.4444 2.6297 5.52633 2.54786 5.63486C2.46603 5.74338 2.41806 5.87365 2.40999 6.00933C2.40028 6.14366 2.42897 6.27797 2.49271 6.3966C2.55645 6.51524 2.65262 6.6133 2.76999 6.67933L4.99999 8.32933L6.34999 9.32933L3.44999 7.13933C3.37354 7.06845 3.28381 7.0134 3.18599 6.97736C3.08816 6.94131 2.98416 6.92499 2.87999 6.92933C2.67015 6.94793 2.47611 7.04854 2.33999 7.20933C2.02999 7.60933 2.27999 8.01933 2.59999 8.26933L4.84999 9.95933L5.99999 10.8093L3.72999 9.10933C3.66068 9.03387 3.57645 8.97362 3.48263 8.9324C3.38882 8.89119 3.28746 8.86991 3.18499 8.86991C3.08253 8.86991 2.98117 8.89119 2.88736 8.9324C2.79354 8.97362 2.70931 9.03387 2.63999 9.10933C2.58013 9.19538 2.53871 9.29287 2.51834 9.3957C2.49797 9.49852 2.49909 9.60445 2.52163 9.70682C2.54417 9.80919 2.58764 9.90579 2.64931 9.99055C2.71099 10.0753 2.78952 10.1464 2.87999 10.1993L6.97999 13.1993C7.79757 13.6902 8.75045 13.9074 9.69999 13.8193" stroke="#165209" stroke-width="0.5" stroke-linecap="round" stroke-linejoin="round"/>
<path d="M14.77 11.9493C14.5684 11.7323 14.412 11.4774 14.31 11.1993C14.2963 10.9801 14.2628 10.7625 14.21 10.5493C14.1788 10.1656 14.0552 9.79506 13.85 9.46931C13.2686 8.77985 12.8545 7.96531 12.64 7.08931C12.48 6.55931 12.37 6.36931 11.9 6.35931C11.7056 6.37663 11.5259 6.47009 11.4 6.61931C11.3407 6.695 11.2969 6.78167 11.2711 6.87434C11.2454 6.96701 11.2382 7.06386 11.25 7.15931C11.2501 7.40055 11.2702 7.64138 11.31 7.87931C11.49 8.79931 11.68 9.55931 11.7 9.60931L7.41001 6.39931C7.33539 6.3252 7.2462 6.26738 7.14809 6.22951C7.04998 6.19164 6.94507 6.17454 6.84001 6.17931C6.73421 6.18494 6.63095 6.21385 6.53761 6.26398C6.44427 6.3141 6.36314 6.38422 6.30001 6.46931C6.25134 6.55202 6.21945 6.64352 6.20618 6.73856C6.19291 6.83361 6.19851 6.93034 6.22266 7.02322C6.2468 7.1161 6.28903 7.20331 6.34692 7.27985C6.4048 7.3564 6.47722 7.42078 6.56001 7.46931L8.81001 9.16931L9.49001 9.72931L5.89001 7.01931C5.81539 6.9452 5.72621 6.88738 5.62809 6.84951C5.52998 6.81164 5.42507 6.79454 5.32001 6.79931C5.16165 6.80095 5.00838 6.85548 4.88458 6.95424C4.76078 7.053 4.67355 7.19032 4.63677 7.34435C4.59998 7.49839 4.61575 7.6603 4.68157 7.80435C4.74739 7.94839 4.85948 8.06629 5.00001 8.13931L7.25001 9.83931L8.60001 10.8393L5.71001 8.64931C5.63593 8.57548 5.54686 8.51844 5.44882 8.48203C5.35078 8.44563 5.24606 8.43072 5.14175 8.4383C5.03745 8.44589 4.93599 8.4758 4.84425 8.526C4.75251 8.57621 4.67263 8.64554 4.61001 8.72931C4.30001 9.12931 4.54001 9.53931 4.87001 9.78931L7.12001 11.4693L8.24001 12.3193L6.00001 10.6193C5.86579 10.4898 5.68654 10.4174 5.50001 10.4174C5.31348 10.4174 5.13423 10.4898 5.00001 10.6193C4.93538 10.6997 4.88932 10.7934 4.86512 10.8936C4.84092 10.9939 4.83917 11.0983 4.86001 11.1993C4.87959 11.3001 4.91992 11.3957 4.97846 11.4801C5.03699 11.5644 5.11244 11.6357 5.20001 11.6893L9.20001 14.6893C9.53369 14.9398 9.92018 15.1109 10.33 15.1893L10.91 15.2793C11.2155 15.321 11.5106 15.4194 11.78 15.5693C11.973 15.6441 12.187 15.6441 12.38 15.5693C13.0819 15.3187 13.6965 14.8708 14.15 14.2793C14.5683 13.6925 14.811 12.9989 14.85 12.2793C14.8797 12.1409 14.8797 11.9977 14.85 11.8593L14.77 11.9493Z" stroke="#165209" stroke-width="1.5" stroke-linecap="round" stroke-linejoin="round"/>
<path fill-rule="evenodd" clip-rule="evenodd" d="M14.81 11.8994L14.36 11.5594C14.3115 10.8224 14.1391 10.099 13.85 9.41935C13.2686 8.7299 12.8545 7.91535 12.64 7.03935C12.48 6.50936 12.37 6.31935 11.9 6.30935C11.7056 6.32668 11.5259 6.42013 11.4 6.56936C11.3407 6.64505 11.2969 6.73172 11.2711 6.82439C11.2454 6.91706 11.2382 7.0139 11.25 7.10936C11.2501 7.3506 11.2702 7.59142 11.31 7.82936C11.49 8.75936 11.68 9.51936 11.7 9.55936L7.41002 6.34935C7.33496 6.27624 7.24541 6.21966 7.14714 6.18327C7.04888 6.14688 6.94407 6.13149 6.83949 6.13808C6.73491 6.14468 6.63288 6.17312 6.53996 6.22156C6.44704 6.27001 6.36531 6.33739 6.30002 6.41936C5.99002 6.82936 6.24002 7.22936 6.56002 7.47936L8.81003 9.16935L9.49002 9.72936L5.89002 6.96935C5.81496 6.89624 5.72541 6.83966 5.62714 6.80327C5.52888 6.76688 5.42407 6.75149 5.31949 6.75808C5.21491 6.76468 5.11288 6.79312 5.01996 6.84156C4.92704 6.89001 4.84531 6.95739 4.78002 7.03935C4.47002 7.43936 4.72002 7.84935 5.04002 8.09935L7.29002 9.78935L8.64003 10.7894L5.71002 8.55936C5.63606 8.48493 5.54672 8.42757 5.44826 8.3913C5.3498 8.35503 5.2446 8.34071 5.14002 8.34935C5.03646 8.35387 4.93519 8.38133 4.84354 8.42975C4.75188 8.47818 4.67212 8.54635 4.61002 8.62935C4.54863 8.71321 4.50611 8.80936 4.48539 8.91121C4.46468 9.01305 4.46626 9.11818 4.49002 9.21935C4.51672 9.32003 4.56437 9.41393 4.62985 9.49492C4.69534 9.57591 4.77718 9.64217 4.87002 9.68936L7.12002 11.3794L8.24002 12.2294L6.00002 10.5594C5.93485 10.4928 5.85706 10.44 5.7712 10.4039C5.68534 10.3678 5.59315 10.3493 5.50002 10.3493C5.4069 10.3493 5.31471 10.3678 5.22885 10.4039C5.14299 10.44 5.0652 10.4928 5.00002 10.5594C4.92964 10.6407 4.87867 10.737 4.85095 10.8409C4.82323 10.9449 4.8195 11.0538 4.84002 11.1594C4.85791 11.2659 4.89956 11.3671 4.96188 11.4554C5.0242 11.5437 5.10559 11.6168 5.20002 11.6694L9.20002 14.6694C9.80701 15.0298 10.4946 15.2327 11.2 15.2594C11.4572 15.4138 11.7245 15.5508 12 15.6694C12.8019 15.5171 13.5165 15.067 14 14.4094C14.5211 13.6498 14.8191 12.7595 14.86 11.8394L14.81 11.8994Z" fill="#DDF6D1"/>
<path d="M14.77 11.9493C14.5684 11.7323 14.412 11.4774 14.31 11.1993C14.2963 10.9801 14.2628 10.7625 14.21 10.5493C14.1788 10.1656 14.0552 9.79506 13.85 9.46931C13.2686 8.77985 12.8545 7.96531 12.64 7.08931C12.48 6.55931 12.37 6.36931 11.9 6.35931C11.7056 6.37663 11.5259 6.47009 11.4 6.61931C11.3407 6.695 11.2969 6.78167 11.2711 6.87434C11.2454 6.96701 11.2382 7.06386 11.25 7.15931C11.2501 7.40055 11.2702 7.64138 11.31 7.87931C11.49 8.79931 11.68 9.55931 11.7 9.60931L7.41001 6.39931C7.33539 6.3252 7.2462 6.26738 7.14809 6.22951C7.04998 6.19164 6.94507 6.17454 6.84001 6.17931C6.73421 6.18494 6.63095 6.21385 6.53761 6.26398C6.44427 6.3141 6.36314 6.38422 6.30001 6.46931C6.25134 6.55202 6.21945 6.64352 6.20618 6.73856C6.19291 6.83361 6.19851 6.93034 6.22266 7.02322C6.2468 7.1161 6.28903 7.20331 6.34692 7.27985C6.4048 7.3564 6.47722 7.42078 6.56001 7.46931L8.81001 9.16931L9.49001 9.72931L5.89001 7.01931C5.81539 6.9452 5.72621 6.88738 5.62809 6.84951C5.52998 6.81164 5.42507 6.79454 5.32001 6.79931C5.16165 6.80095 5.00838 6.85548 4.88458 6.95424C4.76078 7.053 4.67355 7.19032 4.63677 7.34435C4.59998 7.49839 4.61575 7.6603 4.68157 7.80435C4.74739 7.94839 4.85948 8.06629 5.00001 8.13931L7.25001 9.83931L8.60001 10.8393L5.71001 8.64931C5.63593 8.57548 5.54686 8.51844 5.44882 8.48203C5.35078 8.44563 5.24606 8.43072 5.14175 8.4383C5.03745 8.44589 4.93599 8.4758 4.84425 8.526C4.75251 8.57621 4.67263 8.64554 4.61001 8.72931C4.30001 9.12931 4.54001 9.53931 4.87001 9.78931L7.12001 11.4693L8.24001 12.3193L6.00001 10.6193C5.86579 10.4898 5.68654 10.4174 5.50001 10.4174C5.31348 10.4174 5.13423 10.4898 5.00001 10.6193C4.93538 10.6997 4.88932 10.7934 4.86512 10.8936C4.84092 10.9939 4.83917 11.0983 4.86001 11.1993C4.87959 11.3001 4.91992 11.3957 4.97846 11.4801C5.03699 11.5644 5.11244 11.6357 5.20001 11.6893L9.20001 14.6893C9.53369 14.9398 9.92018 15.1109 10.33 15.1893L10.91 15.2793C11.2155 15.321 11.5106 15.4194 11.78 15.5693C11.973 15.6441 12.187 15.6441 12.38 15.5693C13.0819 15.3187 13.6965 14.8708 14.15 14.2793C14.5683 13.6925 14.811 12.9989 14.85 12.2793C14.8797 12.1409 14.8797 11.9977 14.85 11.8593L14.77 11.9493Z" stroke="#165209" stroke-width="0.5" stroke-linecap="round" stroke-linejoin="round"/>
<path d="M8.82998 3.37933L8.09998 4.29933" stroke="#165209" stroke-linecap="round" stroke-linejoin="round"/>
<path d="M5.48999 2.17932L5.55999 3.37932" stroke="#165209" stroke-linecap="round" stroke-linejoin="round"/>
<path d="M7.54001 2.18933L6.89001 3.74933" stroke="#165209" stroke-linecap="round" stroke-linejoin="round"/>
</g>
</g>
<rect x="0.5" y="1.05933" width="15" height="15" rx="7.5" stroke="white"/>
<defs>
<clipPath id="clip0_0_199">
<rect y="0.559326" width="16" height="16" rx="8" fill="white"/>
</clipPath>
</defs>
</svg>
