<svg width="25" height="25" viewBox="0 0 25 25" fill="none" xmlns="http://www.w3.org/2000/svg">
<g opacity="0.6">
<path d="M7.5 9.55933H17.5V10.5593H7.5V9.55933ZM7.5 13.5593H14.5V12.5593H7.5V13.5593ZM23.5 11.5593C23.5148 12.6543 23.2643 13.7365 22.7697 14.7135C22.2751 15.6904 21.5512 16.5331 20.66 17.1693L12.5 22.5593V18.5593H8.5C6.64348 18.5593 4.86301 17.8218 3.55025 16.5091C2.2375 15.1963 1.5 13.4158 1.5 11.5593C1.5 9.70281 2.2375 7.92233 3.55025 6.60958C4.86301 5.29682 6.64348 4.55933 8.5 4.55933H16.5C18.3565 4.55933 20.137 5.29682 21.4497 6.60958C22.7625 7.92233 23.5 9.70281 23.5 11.5593ZM21.5 11.5593C21.5 10.2332 20.9732 8.96147 20.0355 8.02379C19.0979 7.08611 17.8261 6.55933 16.5 6.55933H8.5C7.17392 6.55933 5.90215 7.08611 4.96447 8.02379C4.02678 8.96147 3.5 10.2332 3.5 11.5593C3.5 12.8854 4.02678 14.1572 4.96447 15.0949C5.90215 16.0325 7.17392 16.5593 8.5 16.5593H14.5V18.8393L19.5 15.5593C20.1336 15.1056 20.6469 14.5041 20.9955 13.8071C21.344 13.11 21.5172 12.3385 21.5 11.5593Z" fill="black"/>
</g>
</svg>
