<svg width="16" height="16" viewBox="0 0 16 16" fill="none" xmlns="http://www.w3.org/2000/svg">
<path d="M15 2.53C14.9833 2.90657 14.8263 3.26327 14.56 3.53L9.15 9L6 10L7 6.88L12.44 1.44C12.6516 1.22858 12.9215 1.08524 13.2151 1.02839C13.5088 0.971534 13.8127 1.00376 14.0879 1.12093C14.3631 1.2381 14.597 1.43486 14.7595 1.68594C14.922 1.93702 15.0058 2.23096 15 2.53ZM12 11C12 11.2652 11.8946 11.5196 11.7071 11.7071C11.5196 11.8946 11.2652 12 11 12H5C4.73478 12 4.48043 11.8946 4.29289 11.7071C4.10536 11.5196 4 11.2652 4 11V5C4 4.73478 4.10536 4.48043 4.29289 4.29289C4.48043 4.10535 4.73478 4 5 4H8V2H5C4.20435 2 3.44129 2.31607 2.87868 2.87868C2.31607 3.44129 2 4.20435 2 5V11C2 11.7956 2.31607 12.5587 2.87868 13.1213C3.44129 13.6839 4.20435 14 5 14H11C11.7956 14 12.5587 13.6839 13.1213 13.1213C13.6839 12.5587 14 11.7956 14 11V8H12V11Z" fill="black" fill-opacity="0.6"/>
</svg>
