<svg width="16" height="17" viewBox="0 0 16 17" fill="none" xmlns="http://www.w3.org/2000/svg">
<path d="M8 1.55933C6.61553 1.55933 5.26216 1.96987 4.11101 2.73904C2.95987 3.50821 2.06266 4.60146 1.53285 5.88054C1.00303 7.15963 0.86441 8.56709 1.13451 9.92496C1.4046 11.2828 2.07129 12.5301 3.05026 13.5091C4.02922 14.488 5.2765 15.1547 6.63437 15.4248C7.99224 15.6949 9.3997 15.5563 10.6788 15.0265C11.9579 14.4967 13.0511 13.5995 13.8203 12.4483C14.5895 11.2972 15 9.9438 15 8.55933C15 6.70281 14.2625 4.92233 12.9497 3.60958C11.637 2.29682 9.85652 1.55933 8 1.55933ZM3 8.55933C3 7.47748 3.35089 6.42481 4 5.55933L4.55 6.10933C4.69233 6.24884 4.80544 6.41532 4.8827 6.59903C4.95996 6.78275 4.99984 6.98002 5 7.17933V8.24933C5.00018 8.44817 5.07931 8.63881 5.22 8.77933L5.78 9.33933C5.92052 9.48002 6.11116 9.55915 6.31 9.55933H7V10.2493C7.00018 10.4482 7.07931 10.6388 7.22 10.7793L7.78 11.3393C7.9207 11.4798 7.99983 11.6705 8 11.8693V13.5593C6.67392 13.5593 5.40215 13.0325 4.46447 12.0949C3.52679 11.1572 3 9.88541 3 8.55933ZM9.24 13.3893L11.24 10.9293C11.3295 10.8183 11.3855 10.6841 11.4014 10.5424C11.4174 10.4007 11.3926 10.2574 11.33 10.1293L10.75 8.96933C10.6805 8.83366 10.5719 8.72201 10.4381 8.6489C10.3044 8.57578 10.1517 8.54457 10 8.55933H7V8.36933C7.00096 8.27586 7.02758 8.18446 7.07696 8.1051C7.12634 8.02574 7.19658 7.96147 7.28 7.91933L7.66 7.72933C7.76509 7.67496 7.88169 7.64659 8 7.64659C8.11832 7.64659 8.23491 7.67496 8.34 7.72933L9 8.05933L9.38 7.35933C9.45958 7.2119 9.50084 7.04685 9.5 6.87933V6.02933C9.50062 5.83249 9.57564 5.64317 9.71 5.49933L10.78 4.40933C11.5827 4.94617 12.2127 5.70395 12.594 6.59113C12.9753 7.47832 13.0916 8.45693 12.9287 9.40875C12.7658 10.3606 12.3308 11.2449 11.6762 11.9548C11.0217 12.6647 10.1755 13.1699 9.24 13.4093V13.3893Z" fill="black" fill-opacity="0.6"/>
</svg>
