<svg width="16" height="17" viewBox="0 0 16 17" fill="none" xmlns="http://www.w3.org/2000/svg">
<g clip-path="url(#clip0_0_192)">
<path d="M8 16.0593C12.1421 16.0593 15.5 12.7015 15.5 8.55933C15.5 4.41719 12.1421 1.05933 8 1.05933C3.85786 1.05933 0.5 4.41719 0.5 8.55933C0.5 12.7015 3.85786 16.0593 8 16.0593Z" fill="#DF704D" stroke="white"/>
<path fill-rule="evenodd" clip-rule="evenodd" d="M7.71 5.55935C7.20608 5.10207 6.54506 4.85703 5.86484 4.87535C5.18461 4.89366 4.53773 5.17393 4.05915 5.65766C3.58058 6.1414 3.30727 6.79125 3.29625 7.47163C3.28522 8.15201 3.53734 8.81037 4 9.30935L8 13.3094L12 9.30935C12.2476 9.06391 12.4442 8.77185 12.5783 8.45003C12.7125 8.12821 12.7815 7.78301 12.7815 7.43435C12.7815 7.0857 12.7125 6.7405 12.5783 6.41868C12.4442 6.09686 12.2476 5.8048 12 5.55935C11.7576 5.31546 11.4693 5.12188 11.1518 4.98974C10.8344 4.8576 10.4939 4.7895 10.15 4.78935C9.80579 4.78727 9.46466 4.85435 9.14686 4.98662C8.82907 5.11889 8.54108 5.31366 8.3 5.55935L8 5.85935L7.71 5.55935Z" fill="#FFF3F0" stroke="#77280C"/>
<path d="M7.70997 5.5593C7.46796 5.31288 7.17928 5.11715 6.86078 4.98353C6.54229 4.84992 6.20036 4.7811 5.85497 4.7811C5.50959 4.7811 5.16766 4.84992 4.84916 4.98353C4.53067 5.11715 4.24198 5.31288 3.99997 5.5593C3.51976 6.05542 3.25128 6.71883 3.25128 7.4093C3.25128 8.09976 3.51976 8.76317 3.99997 9.2593L7.99997 13.2593L12 9.2593C12.4802 8.76317 12.7487 8.09976 12.7487 7.4093C12.7487 6.71883 12.4802 6.05542 12 5.5593C11.7594 5.31225 11.4717 5.11593 11.154 4.98196C10.8362 4.84799 10.4948 4.77908 10.15 4.7793C9.80513 4.77908 9.46374 4.84799 9.14599 4.98196C8.82823 5.11593 8.54056 5.31225 8.29997 5.5593L7.99997 5.8093L7.70997 5.5593Z" stroke="#77280C" stroke-linecap="round" stroke-linejoin="round"/>
</g>
<defs>
<clipPath id="clip0_0_192">
<rect width="16" height="16" fill="white" transform="translate(0 0.559326)"/>
</clipPath>
</defs>
</svg>
