<svg width="23" height="20" viewBox="0 0 23 20" fill="none" xmlns="http://www.w3.org/2000/svg">
<path d="M16.6576 4.72399V4.37725C16.6576 1.96394 14.6936 0 12.2803 0H10.2137C7.80041 0 5.83647 1.96394 5.83647 4.37725V4.72399H0.247009V9.53121C0.832307 10.9015 2.19154 11.8641 3.77267 11.8641H18.7214C20.3025 11.8641 21.6617 10.9015 22.247 9.53121V4.72399H16.6576ZM7.50083 4.37725C7.50083 2.88211 8.71857 1.66436 10.2137 1.66436H12.2803C13.7754 1.66436 14.9932 2.88211 14.9932 4.37725V4.72399H7.50083V4.37725Z" fill="#666666"/>
<path d="M3.77267 12.9737C2.39403 12.9737 1.14576 12.4023 0.247009 11.4897V16.5133C0.247009 18.136 1.56186 19.4536 3.18738 19.4536H19.3067C20.9294 19.4536 22.247 18.1388 22.247 16.5133V11.4897C21.351 12.4051 20.1028 12.9737 18.7214 12.9737H3.77267Z" fill="#666666"/>
</svg>
