<svg width="25" height="25" viewBox="0 0 25 25" fill="none" xmlns="http://www.w3.org/2000/svg">
<g opacity="0.6">
<path d="M19.96 11.5593L16.05 7.64934C15.2815 6.87971 14.7028 5.94157 14.36 4.90934L13.87 3.43934C13.6861 2.8925 13.3353 2.41704 12.8672 2.07983C12.399 1.74261 11.837 1.56059 11.26 1.55934C10.8989 1.55803 10.541 1.62786 10.2069 1.76484C9.87272 1.90183 9.56882 2.10329 9.31253 2.35772C9.05624 2.61216 8.85258 2.91458 8.71317 3.24772C8.57375 3.58087 8.50132 3.93821 8.50001 4.29934V5.41934C8.50224 6.38765 8.65749 7.34951 8.96001 8.26934L9.39001 9.55934H4.62001C4.05775 9.55934 3.51852 9.7827 3.12095 10.1803C2.72337 10.5779 2.50001 11.1171 2.50001 11.6793C2.50139 12.0249 2.58566 12.3651 2.74575 12.6713C2.90583 12.9776 3.13706 13.241 3.42001 13.4393C3.1368 13.6328 2.905 13.8923 2.7447 14.1955C2.58439 14.4987 2.5004 14.8364 2.50001 15.1793C2.49207 15.6018 2.60938 16.0172 2.83717 16.3732C3.06496 16.7291 3.39303 17.0096 3.78001 17.1793C3.60026 17.4822 3.50367 17.8272 3.50001 18.1793C3.49914 18.7214 3.70595 19.2432 4.07794 19.6375C4.44992 20.0318 4.95881 20.2687 5.50001 20.2993V20.4393C5.50001 21.0016 5.72337 21.5408 6.12095 21.9384C6.51852 22.336 7.05775 22.5593 7.62001 22.5593H15.11C16.352 22.5582 17.5771 22.2708 18.69 21.7193L19 21.5593H21.5V11.5593H19.96ZM19.5 19.5593H18.5L17.77 19.9293C16.9328 20.341 16.0129 20.5564 15.08 20.5593H8.22001C7.99687 20.5682 7.77717 20.5022 7.59594 20.3717C7.41471 20.2412 7.28237 20.0538 7.22001 19.8393L6.97001 18.9693L6.12001 18.5593C5.92424 18.4796 5.75877 18.3398 5.64738 18.1602C5.53598 17.9805 5.48439 17.7702 5.50001 17.5593L5.67001 16.5593L4.91001 15.8193C4.74466 15.6579 4.64036 15.4441 4.61483 15.2144C4.58931 14.9847 4.64414 14.7532 4.77001 14.5593L5.43001 13.4693L4.70001 12.3693C4.65824 12.3186 4.62712 12.2599 4.60849 12.1969C4.58986 12.1338 4.5841 12.0677 4.59157 12.0024C4.59903 11.9371 4.61956 11.8739 4.65194 11.8167C4.68431 11.7595 4.72787 11.7094 4.78001 11.6693C4.87496 11.5903 4.99675 11.5509 5.12001 11.5593H12.17L10.86 7.63934C10.6211 6.92358 10.4996 6.17391 10.5 5.41934V4.30934C10.5051 4.11203 10.5857 3.92419 10.7253 3.78462C10.8649 3.64505 11.0527 3.56441 11.25 3.55934C11.4068 3.55946 11.5596 3.60873 11.687 3.70021C11.8144 3.79169 11.9098 3.92078 11.96 4.06934L12.5 5.55934C12.9315 6.87426 13.6604 8.07195 14.63 9.05934L19.13 13.5593H19.5V19.5593Z" fill="black"/>
</g>
</svg>
