<svg width="23" height="18" viewBox="0 0 23 18" fill="none" xmlns="http://www.w3.org/2000/svg">
<path d="M15.5631 0H6.93094C3.24117 0 0.247009 2.99164 0.247009 6.68393C0.247009 10.3737 3.23865 13.3679 6.93094 13.3679H11.2458V17.6096L19.215 12.2816C19.2604 12.2513 19.3083 12.2211 19.3537 12.1883L19.3663 12.1808C21.1053 10.9735 22.247 8.96483 22.247 6.68645C22.247 2.99668 19.2554 0.00252039 15.5631 0.00252039V0ZM14.9708 5.32547C15.7219 5.32547 16.3293 5.93287 16.3293 6.68393C16.3293 7.43499 15.7219 8.04239 14.9708 8.04239C14.2197 8.04239 13.6123 7.43499 13.6123 6.68393C13.6123 5.93287 14.2197 5.32547 14.9708 5.32547ZM7.52573 8.04239C6.77467 8.04239 6.16727 7.43499 6.16727 6.68393C6.16727 5.93287 6.77467 5.32547 7.52573 5.32547C8.27679 5.32547 8.88419 5.93287 8.88419 6.68393C8.88419 7.43499 8.27679 8.04239 7.52573 8.04239ZM9.88981 6.68393C9.88981 5.93287 10.4972 5.32547 11.2483 5.32547C11.9993 5.32547 12.6067 5.93287 12.6067 6.68393C12.6067 7.43499 11.9993 8.04239 11.2483 8.04239C10.4972 8.04239 9.88981 7.43499 9.88981 6.68393Z" fill="#666666"/>
</svg>
