<svg width="21" height="22" viewBox="0 0 21 22" fill="none" xmlns="http://www.w3.org/2000/svg">
<path d="M5.47621 9.45266C8.08649 9.45266 10.2025 7.33661 10.2025 4.72633C10.2025 2.11605 8.08649 0 5.47621 0C2.86593 0 0.74987 2.11605 0.74987 4.72633C0.74987 7.33661 2.86593 9.45266 5.47621 9.45266Z" fill="#666666"/>
<path d="M5.08757 12.0501H6.35917C8.75377 12.0501 10.6969 13.9932 10.6969 16.3878V21.9971H0.747009V16.3878C0.747009 13.9932 2.69012 12.0501 5.08471 12.0501H5.08757Z" fill="#666666"/>
<path d="M16.6148 12.4645C18.5985 12.4645 20.2067 10.8563 20.2067 8.8726C20.2067 6.88885 18.5985 5.2807 16.6148 5.2807C14.631 5.2807 13.0229 6.88885 13.0229 8.8726C13.0229 10.8563 14.631 12.4645 16.6148 12.4645Z" fill="#666666"/>
<path d="M16.8034 14.439C18.8894 14.439 20.5839 16.1335 20.5839 18.2195V22H13.0229V18.2195C13.0229 16.1335 14.7174 14.439 16.8034 14.439Z" fill="#666666"/>
</svg>
