<svg width="23" height="21" viewBox="0 0 23 21" fill="none" xmlns="http://www.w3.org/2000/svg">
<path d="M19.0405 11.1554V7.2985C19.0405 3.26872 15.7743 0 11.742 0C7.7096 0 4.44347 3.26614 4.44347 7.2985V11.1554H19.0379H19.0405Z" fill="#666666"/>
<path d="M22.3994 17.4528C22.6187 17.4528 22.7838 17.2516 22.7399 17.0374L22.2471 14.553C22.1955 14.2924 22.1285 14.0345 22.0279 13.792C22.0253 13.7816 22.0201 13.7739 22.0175 13.7636C21.5429 12.6387 20.4051 11.937 19.1848 11.937H4.3092C3.08891 11.937 1.95118 12.6387 1.47648 13.7636C1.47648 13.7636 1.47648 13.7636 1.47648 13.7662C1.38103 13.9958 1.31137 14.2331 1.26235 14.4756L0.754103 17.0349C0.710245 17.249 0.87536 17.4502 1.09465 17.4502H9.57732C9.58764 18.9517 10.5551 20.1643 11.747 20.1643C12.9389 20.1643 13.909 18.9517 13.9167 17.4502H22.3994V17.4528Z" fill="#666666"/>
</svg>
