<svg width="25" height="25" viewBox="0 0 25 25" fill="none" xmlns="http://www.w3.org/2000/svg">
<g clip-path="url(#clip0_0_229)">
<path d="M14.46 5.55933H6.5C5.95 5.55933 5.5 6.00933 5.5 6.55933V16.5593H3.5V6.55933C3.5 4.89933 4.84 3.55933 6.5 3.55933H14.46L12.5 0.559326H14.87L17.5 4.55933L14.87 8.55933H12.5L14.46 5.55933ZM20 8.55933H19.5V18.5593C19.5 19.1093 19.05 19.5593 18.5 19.5593H10.54L12.5 16.5593H10.13L7.5 20.5593L10.13 24.5593H12.5L10.54 21.5593H18.5C20.16 21.5593 21.5 20.2193 21.5 18.5593V8.55933H20Z" fill="black" fill-opacity="0.6"/>
</g>
<defs>
<clipPath id="clip0_0_229">
<rect width="24" height="24" fill="white" transform="translate(0.5 0.559326)"/>
</clipPath>
</defs>
</svg>
