<svg width="14" height="15" viewBox="0 0 14 15" fill="none" xmlns="http://www.w3.org/2000/svg">
<g clip-path="url(#clip0_103_55)">
<path d="M13.5245 12.7959C12.5632 11.6779 11.4966 10.6601 10.4094 9.66798C10.1909 9.47779 9.92877 9.23619 9.63833 9.06141C10.3092 8.16697 10.7127 7.05921 10.7127 5.85634C10.7127 2.90316 8.30953 0.5 5.35634 0.5C2.40316 0.5 0 2.90316 0 5.85634C0 8.80953 2.40316 11.2127 5.35634 11.2127C6.45383 11.2127 7.47421 10.8786 8.32495 10.3105C8.73361 11.0533 9.38902 11.5725 9.94419 12.2099C10.6253 12.9167 11.3218 13.6081 12.0672 14.2481C13.031 15.0449 14.3187 13.7675 13.5219 12.7934L13.5245 12.7959ZM5.35634 9.67055C3.2539 9.67055 1.54213 7.95879 1.54213 5.85634C1.54213 3.7539 3.2539 2.04213 5.35634 2.04213C7.45878 2.04213 9.17055 3.7539 9.17055 5.85634C9.17055 7.95879 7.45878 9.67055 5.35634 9.67055V9.67055Z" fill="#5F6163"/>
</g>
<defs>
<clipPath id="clip0_103_55">
<rect width="13.7738" height="14" fill="white" transform="translate(0 0.5)"/>
</clipPath>
</defs>
</svg>
