<svg width="16" height="16" viewBox="0 0 16 16" fill="none" xmlns="http://www.w3.org/2000/svg">
<path d="M3 9.5C2.70333 9.5 2.41332 9.41203 2.16665 9.24721C1.91997 9.08238 1.72771 8.84811 1.61418 8.57403C1.50065 8.29994 1.47094 7.99834 1.52882 7.70737C1.5867 7.41639 1.72956 7.14912 1.93934 6.93934C2.14912 6.72956 2.41639 6.5867 2.70737 6.52882C2.99834 6.47094 3.29994 6.50065 3.57403 6.61418C3.84811 6.72771 4.08238 6.91997 4.24721 7.16665C4.41203 7.41332 4.5 7.70333 4.5 8C4.5 8.39783 4.34197 8.77936 4.06066 9.06066C3.77936 9.34197 3.39783 9.5 3 9.5ZM11.5 8C11.5 8.29667 11.588 8.58668 11.7528 8.83336C11.9176 9.08003 12.1519 9.27229 12.426 9.38582C12.7001 9.49935 13.0017 9.52906 13.2926 9.47118C13.5836 9.4133 13.8509 9.27044 14.0607 9.06066C14.2704 8.85088 14.4133 8.58361 14.4712 8.29264C14.5291 8.00167 14.4994 7.70006 14.3858 7.42598C14.2723 7.15189 14.08 6.91762 13.8334 6.7528C13.5867 6.58797 13.2967 6.5 13 6.5C12.6022 6.5 12.2206 6.65804 11.9393 6.93934C11.658 7.22065 11.5 7.60218 11.5 8ZM6.5 8C6.5 8.29667 6.58797 8.58668 6.7528 8.83336C6.91762 9.08003 7.15189 9.27229 7.42598 9.38582C7.70006 9.49935 8.00167 9.52906 8.29264 9.47118C8.58361 9.4133 8.85088 9.27044 9.06066 9.06066C9.27044 8.85088 9.4133 8.58361 9.47118 8.29264C9.52906 8.00167 9.49935 7.70006 9.38582 7.42598C9.27229 7.15189 9.08003 6.91762 8.83336 6.7528C8.58668 6.58797 8.29667 6.5 8 6.5C7.60218 6.5 7.22064 6.65804 6.93934 6.93934C6.65804 7.22065 6.5 7.60218 6.5 8Z" fill="black" fill-opacity="0.6"/>
</svg>
