<svg width="20" height="5" viewBox="0 0 20 5" fill="none" xmlns="http://www.w3.org/2000/svg">
<path d="M12 2.55933C12 2.95489 11.8827 3.34157 11.6629 3.67047C11.4432 3.99936 11.1308 4.25571 10.7654 4.40709C10.3999 4.55846 9.99778 4.59807 9.60982 4.5209C9.22186 4.44373 8.86549 4.25324 8.58579 3.97354C8.30608 3.69383 8.1156 3.33747 8.03843 2.94951C7.96126 2.56154 8.00087 2.15941 8.15224 1.79396C8.30362 1.42851 8.55996 1.11615 8.88886 0.896387C9.21776 0.676624 9.60444 0.559326 10 0.559326C10.5304 0.559326 11.0391 0.77004 11.4142 1.14511C11.7893 1.52019 12 2.02889 12 2.55933ZM2 0.559326C1.60444 0.559326 1.21776 0.676624 0.88886 0.896387C0.559962 1.11615 0.303617 1.42851 0.152242 1.79396C0.000866562 2.15941 -0.0387401 2.56154 0.0384303 2.94951C0.115601 3.33747 0.306082 3.69383 0.585787 3.97354C0.865492 4.25324 1.22186 4.44373 1.60982 4.5209C1.99778 4.59807 2.39992 4.55846 2.76537 4.40709C3.13082 4.25571 3.44318 3.99936 3.66294 3.67047C3.8827 3.34157 4 2.95489 4 2.55933C4 2.02889 3.78929 1.52019 3.41421 1.14511C3.03914 0.77004 2.53043 0.559326 2 0.559326ZM18 0.559326C17.6044 0.559326 17.2178 0.676624 16.8889 0.896387C16.56 1.11615 16.3036 1.42851 16.1522 1.79396C16.0009 2.15941 15.9613 2.56154 16.0384 2.94951C16.1156 3.33747 16.3061 3.69383 16.5858 3.97354C16.8655 4.25324 17.2219 4.44373 17.6098 4.5209C17.9978 4.59807 18.3999 4.55846 18.7654 4.40709C19.1308 4.25571 19.4432 3.99936 19.6629 3.67047C19.8827 3.34157 20 2.95489 20 2.55933C20 2.02889 19.7893 1.52019 19.4142 1.14511C19.0391 0.77004 18.5304 0.559326 18 0.559326Z" fill="black" fill-opacity="0.6"/>
</svg>
