<svg width="16" height="17" viewBox="0 0 16 17" fill="none" xmlns="http://www.w3.org/2000/svg">
<g clip-path="url(#clip0_0_186)">
<path d="M8 16.0593C12.1421 16.0593 15.5 12.7015 15.5 8.55933C15.5 4.41719 12.1421 1.05933 8 1.05933C3.85786 1.05933 0.5 4.41719 0.5 8.55933C0.5 12.7015 3.85786 16.0593 8 16.0593Z" fill="#378FE9" stroke="white"/>
<path fill-rule="evenodd" clip-rule="evenodd" d="M11.93 7.80932H11.38C11.33 7.80932 11.23 7.61932 10.98 7.34932C10.61 6.94932 10.2 6.43932 9.91002 6.15932C9.18946 5.53576 8.6012 4.77409 8.18002 3.91932C7.94002 3.40932 7.92002 3.17932 7.43002 3.17932C7.23747 3.20652 7.06202 3.30466 6.93807 3.4545C6.81413 3.60435 6.75063 3.79509 6.76002 3.98932C6.76002 4.12932 6.83002 4.61932 6.86002 4.78932C7.0729 5.57165 7.41057 6.31452 7.86002 6.98932H4.12002C3.99819 6.98846 3.87752 7.0129 3.76563 7.0611C3.65374 7.10929 3.55308 7.1802 3.47002 7.26932C3.38655 7.35637 3.3228 7.46038 3.28311 7.57426C3.24343 7.68815 3.22873 7.80925 3.24002 7.92932C3.25543 8.16362 3.36081 8.38289 3.53413 8.5413C3.70744 8.6997 3.93528 8.78499 4.17002 8.77932H4.33002C4.12294 8.78696 3.92644 8.8727 3.78002 9.01932C3.64238 9.16512 3.56704 9.35885 3.57002 9.55932C3.57175 9.76082 3.64853 9.95444 3.78537 10.1024C3.9222 10.2503 4.10926 10.3419 4.31002 10.3593C4.18782 10.4528 4.09517 10.5796 4.04318 10.7244C3.99118 10.8692 3.98206 11.0259 4.01688 11.1758C4.05171 11.3257 4.12902 11.4623 4.23954 11.5694C4.35006 11.6764 4.48911 11.7493 4.64002 11.7793C4.54145 11.9446 4.50929 12.1412 4.55002 12.3293C4.60275 12.5132 4.71459 12.6745 4.86824 12.7884C5.02189 12.9023 5.20879 12.9623 5.40002 12.9593H7.69002C7.98999 12.9579 8.28873 12.921 8.58002 12.8493L10 12.4493H11.9C12.92 12.4093 13.19 7.80932 11.93 7.80932Z" fill="#D0E8FF"/>
<path d="M7.43003 6.9893H4.11003C3.98364 6.98812 3.85847 7.01418 3.74306 7.06571C3.62764 7.11724 3.52468 7.19303 3.44117 7.28791C3.35767 7.3828 3.29559 7.49456 3.25916 7.6156C3.22272 7.73663 3.21279 7.86409 3.23003 7.9893C3.25022 8.22092 3.35735 8.4363 3.52989 8.59214C3.70242 8.74797 3.92756 8.83271 4.16003 8.82931H4.32003C4.11296 8.83694 3.91645 8.92269 3.77003 9.0693C3.69944 9.14392 3.6445 9.23191 3.60844 9.32808C3.57237 9.42426 3.55591 9.52667 3.56003 9.6293C3.56371 9.83124 3.64089 10.0249 3.77711 10.174C3.91333 10.3231 4.09925 10.4174 4.30003 10.4393C4.2044 10.5143 4.12688 10.6099 4.07322 10.719C4.01955 10.828 3.99112 10.9478 3.99003 11.0693C3.98864 11.2574 4.05275 11.4401 4.17135 11.586C4.28995 11.732 4.45565 11.8322 4.64003 11.8693C4.54082 12.0381 4.50869 12.238 4.55003 12.4293C4.60309 12.6122 4.71533 12.7722 4.86916 12.8844C5.02299 12.9967 5.2097 13.0546 5.40003 13.0493H7.69003C7.99 13.0479 8.28874 13.011 8.58003 12.9393L10 12.4693H11.9C12.9 12.4693 13.17 7.8293 11.9 7.8293C11.7168 7.8394 11.5332 7.8394 11.35 7.8293C11.35 7.8293 11.2 7.6393 10.95 7.3693C10.58 6.9693 10.17 6.4593 9.88003 6.1793C9.16822 5.55089 8.59008 4.78571 8.18003 3.9293C8.09876 3.74157 7.991 3.56645 7.86003 3.4093C7.69348 3.26924 7.47858 3.20019 7.26162 3.21703C7.04465 3.23386 6.84298 3.33523 6.70003 3.4993C6.59639 3.61138 6.51193 3.73977 6.45003 3.8793C6.41091 3.97634 6.38079 4.07676 6.36003 4.1793C6.3332 4.46124 6.3569 4.7457 6.43003 5.0193C6.4897 5.30816 6.58022 5.58978 6.70003 5.85931C6.88949 6.21182 7.11039 6.54651 7.36003 6.85931C7.39088 6.87832 7.41528 6.9062 7.43003 6.93931" stroke="#004182" stroke-linecap="round" stroke-linejoin="round"/>
</g>
<defs>
<clipPath id="clip0_0_186">
<rect width="16" height="16" fill="white" transform="translate(0 0.559326)"/>
</clipPath>
</defs>
</svg>
